<svg xmlns="http://www.w3.org/2000/svg" version="1.1" id="Layer_1" x="0px" y="0px" width="130px" height="39px" viewBox="1 0 455 137" enable-background="new 0 0 455 137" xml:space="preserve" class="header" preserveAspectRatio="xMidYMid meet"><style id="style2986">.header .textColor,.header .star3, .invert .textColor,.invert .star3{fill:	#FFF;} .textColor,.star3{fill:	#004a80;} .star2{fill :#F58025;} .star1{fill :#57A3CC;} </style><g id="BrandName" class="textColor"><g id="g2990"><g id="g2992"><g id="g2994"><path id="path2996" d="m 141.062,85.395 h 6.221 v 7.373 h 0.152 c 2.992,-5.078 6.213,-7.947 12.653,-7.947 v 5.162 c -3.365,0.061 -5.855,1.236 -7.971,3.188 -2.558,2.361 -4.788,6.479 -4.834,10.145 v 19.32 h -6.221 V 85.395 z"/><path id="path2998" d="m 165.347,92.555 c 2.468,-4.301 8.094,-7.875 15.434,-7.875 6.594,0 14.319,3.008 14.319,11.168 v 18.77 c 0,4.08 0.375,6.086 0.901,8.02 h -6.38 l -0.595,-5.16 c -2.701,2.863 -7.05,5.869 -12.885,5.869 -5.996,0 -11.926,-3.432 -11.926,-10.232 0,-8.17 7.354,-12.25 24.658,-15.184 v -1.994 c 0,-4.951 -3.368,-6.818 -8.021,-6.818 -5.986,0 -8.912,3.301 -9.962,5.807 l -5.543,-2.371 z m 23.527,9.957 c -12.357,2.074 -18.432,5.514 -18.432,10.668 0,3.438 3.45,5.729 6.449,5.729 3.891,0 8.834,-2.709 11.983,-6.158 v -10.239 z"/><path id="path3000" d="m 220.055,122.633 h -8.026 L 200.045,85.395 h 6.303 l 9.888,30.805 h 0.148 l 9.887,-30.805 h 5.476 l -11.692,37.238 z"/><path id="path3002" d="m 283.479,69.902 v 52.73 h -6.293 V 72.566 l 6.293,-2.664 z"/><path id="path3004" d="m 307.635,123.342 c -10.643,0 -16.795,-8.59 -16.795,-19.33 0,-10.738 6.152,-19.332 16.795,-19.332 10.639,0 16.791,8.59 16.791,19.332 0,10.74 -6.154,19.33 -16.791,19.33 z m 0,-34.229 c -6.445,0 -10.564,5.311 -10.564,14.896 0,9.604 4.119,14.896 10.564,14.896 6.441,0 10.557,-5.293 10.557,-14.896 0,-9.587 -4.113,-14.896 -10.557,-14.896 z"/><path id="path3006" d="m 355.448,96.49 c -1.494,-4.51 -4.566,-7.379 -9.207,-7.379 -6.67,0 -10.568,5.447 -10.568,14.898 0,9.453 3.898,14.895 10.568,14.895 4.939,0 7.713,-1.568 10.703,-6.869 l 5.188,1.854 c -3.902,6.309 -8.178,9.453 -15.891,9.453 -9.744,0 -16.791,-7.295 -16.791,-19.33 0,-12.029 7.047,-19.332 16.791,-19.332 8.016,0 12.59,4.295 15.062,10.096 l -5.855,1.714 z"/><path id="path3008" d="m 368.68,85.395 h 6.225 v 37.238 H 368.68 V 85.395 z"/><g id="g3010"><path id="path3012" d="m 127.058,118.904 c -3.146,0 -4.421,-0.857 -4.421,-2.568 V 89.838 h 7.791 l 1.198,-4.443 h -8.989 V 72.123 l -6.231,2.66 v 10.609 h -5.729 v 4.441 h 5.729 v 27.355 c 0.634,4.725 3.312,6.146 9.146,6.146 2.542,0 4.043,-0.18 5.818,-0.518 l 1.186,-4.379 c -2.176,0.34 -3.725,0.467 -5.498,0.467 z"/></g><path id="path3014" d="m 442.069,85.395 -13.711,40.531 c -3.055,8.309 -8.979,10.652 -14.076,10.652 -1.799,0 -4.057,-0.287 -5.104,-0.428 l 1.334,-4.432 c 0.754,0.066 1.729,0.215 2.92,0.215 3.293,0 8.316,-0.711 10.195,-8.875 L 410.063,85.394 h 5.691 l 10.484,28.43 h 0.154 l 9.139,-28.43 h 6.538 l 0,10e-4 z"/></g><g id="g3016"><path id="path3018" d="m 399.842,118.904 c -3.146,0 -4.418,-0.857 -4.418,-2.568 V 89.838 h 7.795 l 1.201,-4.443 h -8.996 V 72.123 l -6.23,2.66 v 10.609 h -5.727 v 4.441 h 5.727 v 27.355 c 0.645,4.725 3.312,6.146 9.154,6.146 2.533,0 4.037,-0.18 5.809,-0.518 l 1.189,-4.379 c -2.181,0.34 -3.73,0.467 -5.504,0.467 z"/></g></g><path id="path3020" d="m 264.531,112.797 c -2.253,3.75 -5.945,6.107 -10.666,6.107 -6.437,0 -11.529,-5.729 -11.529,-13.893 h 26.154 v -3.432 c 0,-11.896 -7.574,-16.902 -15.675,-16.902 -9.584,0 -16.709,7.303 -16.709,19.332 0,13.605 9.074,19.33 17.759,19.33 7.438,0 10.01,-0.65 14.562,-6.797 l -3.896,-3.745 z M 252.973,89.113 c 5.844,0 9.287,4.586 9.287,11.459 h -19.777 c 0.453,-6.875 3.974,-11.459 10.49,-11.459 z"/></g><rect x="368.68" y="72.818" width="6.225" height="6.168" class="textColor"/></g><path id="star2" d="M9.17,67.744c0.926-0.389,1.883-0.488,2.834-0.812c-1.447-1.56-3.062-2.991-4.312-4.837   c-0.382-0.504-0.189-0.775,0.122-0.882c0.295,0.037,0.084-0.599,0.273-0.876c0.635-0.207,0.572-0.825,0.93-1.229   c0.021-0.15-0.065-0.609,0.103-0.735c0.162-0.136,0.486-0.24,0.761-0.048c1.172,1.373,2.543,2.315,3.923,3.271   c1.66,1.136,3.349,1.97,4.817,3.388c0.144,0.025,0.568,0.234,0.61-0.062c0.209-1.48,0.694-2.773,1.323-4.049   c0.212-0.42,0.296-1.021,0.65-1.416c0.425-0.854,1.414-1.471,2.242-1.957c1.308-0.727,2.881-0.051,3.782-1.136   c0.341-0.252,0.909-0.02,1.209,0.024c0.848,0.417,2.092,0.145,2.749,0.833c-1.115,2.564-1.191,5.271-2.023,8.025   c-0.085,0.598-0.505,1.443-0.085,1.648c1.292,0.488,4.702-0.093,4.868-0.225c1.824-0.046,3.466,0.035,5.225,0.438   c1.315,0.33,2.292,0.916,3.373,1.825c1.911,1.479,1.858,4.033,1.696,6.271c-0.023,0.154-0.888,0.938-1.187,0.896   c-0.145-0.021-0.215-0.633-0.366-0.656c-0.668,0.518-2.069,1.828-2.528,1.918c-0.156-0.021-1.085-0.908-1.506-1.115   c-1.523-0.967-3.222-0.756-4.913-0.537c-1.99,0.176-3.913-0.104-5.841,0.693c0.723,1.311,1.992,1.936,3.064,2.986   c1.712,1.758,3.491,3.062,5.38,4.689c1.187,1.219,2.421,2.152,3.13,3.611c-0.488,0.229-0.046,0.471-0.235,0.746   c-0.312,0.105-0.278-0.363-0.575-0.408c-0.292-0.043-0.5,0.377-0.401,0.697c0.126,0.168-0.278,0.945-0.594,1.047   c-0.172,0.131-0.866,0.574-1.136,0.523c-0.147-0.023-1.075-0.396-0.979-0.283c0.339,0.373,0.575,1.051,0.491,1.174   c-0.745-0.109-1.119-0.203-1.649-0.73c-2.44-2.004-4.56-4.111-7.132-6.291c-0.926-0.889-1.525-2.025-2.627-2.783   c-1.768,3.979-2.987,6.854-4.758,10.838c-0.421,0.693-0.646,2.543-1.035,2.771c-0.249,0.139-1.354-1.35-1.881-2.439   c-0.027-2.354,0.223-3.297,0.434-5.838l0.058-0.445c0.164-3.305,1.166-6.182,1.029-9.525c0.042-0.295-0.406-0.359-0.848-0.422   c-4.467-0.479-8.784-0.922-13.228-1.549c-1.037-0.145-2.095-0.145-3.098-0.58c-0.126-0.168-0.698-0.398-0.841-0.42   c-0.13-0.17-0.13-0.17-0.273-0.193c1.741-1.717,3.328-3.49,5.733-4.594C6.564,68.71,8.368,68.092,9.17,67.744z" class="star2"/><path id="star3" d="M50.513,90.824c-0.265-0.09-0.123-0.371-0.123-0.479c0.24-0.479,0.833-0.355,1.193-0.355   c1.197-0.355,2.501,0.01,3.696-0.355c0.24-0.105,0.471-0.471,0.596-0.471c0.96-0.357,1.79-0.598,2.752-0.834   c0.228-0.109,0.833-0.469,0.594-0.832c-1.073-1.068-2.142-2.146-2.613-3.457c-0.361-0.725-0.963-1.314-0.957-2.029   c0-0.598,0.72-0.719,1.315-0.479c2.623,1.438,4.4,3.584,6.306,5.857c0.357,0.477,0.719-0.598,0.841-0.955   c0.833-1.902,1.437-3.934,2.515-5.844c0.231-0.592,0.716-1.303,1.317-1.426c0.947-0.23,1.431-0.826,2.263-1.303   c0.597-0.234,1.077,0,1.672-0.359c0.352-0.105,0.833,0.48,1.309,0.25c0.717-0.479,1.314-0.117,2.031,0   c0.47,0.238,0.591,0.715,0.47,1.203c-0.72,1.656-1.085,3.441-2.154,5.111c-0.833,1.307-1.555,2.502-2.512,3.807   c0,0.125-0.126,0.365,0.118,0.484c0.589,0.117,1.31,0,1.788,0.236c1.792,0.6,3.578,0.361,5.486,0.73   c0.955,0.232,0.951,1.557,1.781,2.27c0.479,0.357-0.359,0.713-0.835,0.828c-1.312,0.357-2.621-0.127-3.934,0.232   c-2.27,0.475-4.415-0.012-6.558,0.816c0.703,0.721,1.417,1.316,2.015,2.037c0.596,0.838,1.199,1.664,1.784,2.514   c0.597,0.943,0.948,1.902,1.188,2.852c0.238,0.484,0.116,1.074,0.111,1.682c-0.233-0.125-0.233-0.605-0.473-0.723   c-0.234,0-0.478,0.467-0.837,0.355c-0.349-0.113-0.469-0.355-0.59-0.6c-0.476-0.477-0.829-1.07-1.069-1.674   c-0.829-1.785-2.5-2.979-4.051-4.18c-1.43,2.979-2.511,5.957-4.544,8.812c-0.121,0.236-0.475,0.236-0.839,0.236   c-0.118-0.117-0.355,0.238-0.477,0.355c-0.114-0.234-0.351-0.355-0.473-0.477c-0.595-0.479-1.428-0.957-1.666-1.676   c-0.355-0.715-0.589-1.311-0.589-2.029c-0.007-0.115-0.242-0.354-0.242-0.475c0.242-0.479,0.242-1.074,0.483-1.436   c0.354-0.357,0.833-0.83,0.952-1.305c0.601-1.428,1.677-2.506,1.921-4.051c-2.865-0.484-5.847-0.26-8.582-1.324   c-0.606-0.25-1.317-0.484-1.91-0.848C50.748,91.299,50.868,90.941,50.513,90.824z" class="star3"/><path id="star1" d="M53.907,46.474c0.859-2.082,2.306-3.441,2.535-5.793c-4.718-2.528-10.462-1.052-13.905-7.033   c-0.818-1.249,0.042-7.319,0.505-8.006c1.064-2.208,3.122-2.189,5.094-0.649c0.194-0.136,1.662,0.288,1.982,0.43   c1.936-0.256,4.042,0.447,6.032,0.878c2.695,0.302,4.93,1.286,7.374,1.028c0.194-0.134,0.463-0.685,0.408-1.383   c-0.589-3.593-1.443-6.646-2.352-10.383c-0.375-0.833-0.354-1.942-0.532-2.907c-0.158-2.079-1.651-5.409-0.288-6.364   c0.193-0.138,0.446,0.416,0.64,0.283c0.387-0.273,0.652-0.829,0.975-0.688c4.647,2.941,8.494,7.536,12.541,11.994   c1.334,1.258,1.578-2.197,2.625-3.295c0.266-0.547-0.037-1.8,0.228-2.351c0.993-1.788,1.227-4.137,2.015-5.784   c1.577-2.203,2.465-5.374,4.858-6.327c1.608-0.401,3.397,0.172,4.859,1.698c0.316,0.144,1.031,0.014,1.471,0.429   c1.646,1.398,3.031,3.346,4.814,5.021c0.564,0.692,0.863,1.942,0.597,2.492c-0.42,2.487-2.669,2.604-3.983,4.248   c-2.57,3.993-5.128,7.986-7.703,11.972c-0.265,0.553-0.993,1.79-0.424,2.479c3.55,3.354,6.703,6.975,10.714,9.628   c2.482,1.548,5.254,1.433,7.471,3.526c1.571,1.812,2.763,3.894,3.567,6.255c-9.026,5.592-19.293-3.626-28.946-3.423   c-0.703,0.13-0.524,1.101-0.6,1.513c0.519,4.02,1.234,7.896,1.624,11.632c0.216,2.771,1.655,5.405,2.063,8.04   c0.177,0.973,1.103,3.604-0.24,3.458c-1.55-0.018-3.534-0.451-4.528-2.667c-1.365-3.054-2.734-6.106-3.717-9.437   c-0.176-0.972-0.547-1.8-0.206-2.772c0.079-1.513-0.863-3.049-1.355-4.155c-0.25-0.554-0.905,0.267-1.295,0.539   c-1.312,1.648-2.623,3.3-3.812,5.226c-2.223,3.027-4.764,4.805-7.741,6.163c-2.2,0.812-5.548,1.336-7.037-1.996   c0.707-0.137,1.308-1.65,0.859-2.071C47.642,53.053,52.44,50.05,53.907,46.474z" class="star1"/><g id="g3030"><path id="path3032" d="M449.426,87.652h1.064c0.904,0,1.146,0.273,1.146,0.768c0,0.568-0.312,0.844-1.273,0.844h-0.938V87.652    L449.426,87.652z M449.426,89.912h0.889l1.371,2.23h0.867l-1.469-2.258c0.77-0.094,1.35-0.492,1.35-1.418    c0-1.014-0.6-1.473-1.83-1.473h-1.977v5.146h0.799V89.912L449.426,89.912z M445.834,89.566c0,2.582,2.078,4.479,4.533,4.479    c2.439,0,4.525-1.896,4.525-4.479c0-2.568-2.086-4.457-4.525-4.457C447.915,85.109,445.834,86.996,445.834,89.566z M454.022,89.566    c0,2.18-1.604,3.756-3.652,3.756c-2.062,0-3.666-1.576-3.666-3.756c0-2.137,1.604-3.736,3.666-3.736    C452.42,85.828,454.022,87.432,454.022,89.566z" class="textColor"/><path id="path3034" d="M449.426,87.652h1.064c0.904,0,1.146,0.273,1.146,0.768c0,0.568-0.312,0.844-1.273,0.844h-0.938V87.652    L449.426,87.652z M449.426,89.912h0.889l1.371,2.23h0.867l-1.469-2.258c0.77-0.094,1.35-0.492,1.35-1.418    c0-1.014-0.6-1.473-1.83-1.473h-1.977v5.146h0.799V89.912L449.426,89.912z M445.834,89.566c0,2.582,2.078,4.479,4.533,4.479    c2.439,0,4.525-1.896,4.525-4.479c0-2.568-2.086-4.457-4.525-4.457C447.915,85.109,445.834,86.996,445.834,89.566z M454.022,89.566    c0,2.18-1.604,3.756-3.652,3.756c-2.062,0-3.666-1.576-3.666-3.756c0-2.137,1.604-3.736,3.666-3.736    C452.42,85.828,454.022,87.432,454.022,89.566z" class="textColor"/></g></svg>