<svg xmlns="http://www.w3.org/2000/svg" version="1.1" width="204px" height="44px" viewBox="0 0 204 44" enable-background="new 0 0 204 44" xml:space="preserve" class="header" preserveAspectRatio="xMidYMid meet"><style type="text/css">
	.logo{fill:	#991A36;}
		.tag{}
		.cheap{fill: #DD1F26;}
		.tickets{}
	.tagline{fill:	#991A36;}
    .interstitial .tagline { visibility:hidden;}
	</style><g id="logo" transform="matrix(0.992087,0,0,0.992087,0,-0.861432)" class="logo"><g id="cheap" class="cheap"><path d="M42.636,21.161L45.392,21.334C44.197,25.667 40.499,28.463 36.169,28.463C30.523,28.463 28.355,24.379 29.396,19.034C30.448,13.607 33.929,9.11 39.847,9.11C44.644,9.11 46.833,11.961 46.306,16.651L40.88,16.926C41.243,15.333 41.027,13.334 39.083,13.334C36.531,13.334 35.661,17.252 35.312,19.034C34.945,20.924 34.437,24.133 37.034,24.133C38.816,24.133 39.808,22.569 40.195,21.006L42.636,21.161Z"/><path d="M53.904,28.188L55.595,19.475C55.777,18.54 55.738,17.744 54.614,17.744C54.097,17.744 53.581,17.989 53.198,18.43C52.818,18.816 52.697,19.305 52.63,19.772L50.995,28.188L45.568,28.188L49.224,9.385L54.654,9.385L53.4,15.827C54.679,14.566 56.073,13.907 57.716,13.907C59.089,13.907 60.468,14.291 61.015,15.444C61.573,16.651 61.312,17.989 61.034,19.418L59.327,28.188L53.904,28.188Z"/><path d="M71.734,19.528C72.001,18.158 71.765,17.114 70.228,17.114C68.806,17.114 68.009,18.241 67.814,19.528L71.734,19.528ZM76.443,23.504C74.933,26.899 71.616,28.463 68.294,28.463C66.243,28.463 64.325,28.026 63.007,26.626C61.763,25.282 61.341,23.366 61.726,21.359C62.097,19.475 63.238,17.42 64.814,16.075C66.527,14.595 68.798,13.907 70.804,13.907C75.456,13.907 77.722,16.926 76.825,21.521L76.687,22.264L67.312,22.264C66.935,23.774 67.269,24.874 68.915,24.874C70.152,24.874 70.931,24.379 71.386,23.17L76.443,23.504Z"/><path d="M86.874,21.637C85.532,21.775 83.261,22.188 82.931,23.883C82.755,24.792 83.259,25.17 84.109,25.17C86.161,25.17 86.527,23.448 86.827,21.911L86.874,21.637ZM86.07,28.188C86.058,27.558 86.132,26.899 86.253,26.244C84.847,27.86 83.165,28.463 81.249,28.463C78.64,28.463 76.644,27.036 77.191,24.242C77.618,22.02 79.632,20.542 81.695,19.939C83.587,19.39 85.521,19.168 87.378,19.06L87.398,18.951C87.648,17.692 87.411,17.197 86.093,17.197C85.027,17.197 84.048,17.579 83.652,18.756L78.753,18.297C80.253,14.811 83.745,13.907 86.898,13.907C88.55,13.907 90.614,14.128 91.792,15.114C93.38,16.4 92.806,18.21 92.419,20.212L91.462,25.12C91.261,26.161 91.087,27.2 91.304,28.188L86.07,28.188Z"/><path d="M99.456,22.733C99.267,23.723 99.181,25.009 100.498,25.009C101.263,25.009 101.84,24.599 102.203,23.856C102.57,23.087 102.82,22.107 102.969,21.307C103.195,20.158 103.761,17.389 102.033,17.389C101.568,17.389 101.09,17.608 100.715,17.963C100.275,18.401 100.219,18.842 100.107,19.39L99.456,22.733ZM100.711,14.181L100.322,16.183L100.377,16.183C101.283,14.484 102.931,13.907 104.797,13.907C108.738,13.907 109.312,17.744 108.672,21.034C108.367,22.596 107.775,24.379 106.767,25.749C105.537,27.423 103.886,28.463 101.935,28.463C100.484,28.463 99.271,27.918 98.663,26.68L97.513,32.601L92.087,32.601L95.667,14.181L100.711,14.181Z"/></g><g id="tickets" class="tickets"><path d="M141.521,22.866C140.32,26.483 137.375,28.401 133.808,28.401C131.783,28.401 130.228,27.936 129.026,26.483C127.881,25.057 127.59,23.167 127.978,21.164C128.8,16.938 132.306,13.844 136.609,13.844C140.066,13.844 142.416,15.873 142.14,19.382L137.261,19.792L137.261,19.658C137.261,18.696 137.254,17.604 136.043,17.604C134.32,17.604 133.877,19.876 133.636,21.11C133.385,22.423 132.992,24.561 134.773,24.561C135.951,24.561 136.597,23.491 136.935,22.482L141.521,22.866Z"/><path d="M115.621,28.126L110.136,28.126L112.91,13.844L108.97,13.844L109.842,9.324L123.138,9.324L122.261,13.844L118.396,13.844L115.621,28.126Z"/><path d="M125.435,28.126L120.01,28.126L122.728,14.12L128.16,14.12L125.435,28.126Z"/><path d="M153.73,18.944L156.666,28.126L150.988,28.126L149.447,22.505L147.736,24.262L146.986,28.126L141.562,28.126L145.209,9.324L150.644,9.324L148.672,19.466L150.152,17.9L154.177,14.12L158.896,14.12L153.73,18.944Z"/><path d="M166.871,19.466C167.131,18.096 166.902,17.051 165.367,17.051C163.939,17.051 163.142,18.18 162.951,19.466L166.871,19.466ZM171.584,23.44C170.07,26.837 166.752,28.401 163.431,28.401C161.379,28.401 159.461,27.963 158.14,26.561C156.896,25.219 156.474,23.303 156.861,21.297C157.228,19.413 158.375,17.357 159.947,16.009C161.66,14.531 163.935,13.844 165.931,13.844C170.592,13.844 172.859,16.864 171.965,21.462L171.82,22.201L162.445,22.201C162.07,23.712 162.404,24.811 164.052,24.811C165.281,24.811 166.064,24.315 166.515,23.108L171.584,23.44Z"/><path d="M172.691,17.679L173.385,14.118L175.662,14.118L176.943,9.649L181.689,9.487L180.783,14.122L183.578,14.123L182.886,17.683L180.146,17.682L179.205,22.506C179.01,23.522 178.746,24.315 180.033,24.317C180.554,24.317 181.095,24.209 181.642,24.072L180.873,27.992L177.592,28.401C176.099,28.587 174.795,28.124 173.947,26.971C173.103,25.821 173.394,24.474 173.685,22.974L174.717,17.679L172.691,17.679Z"/><path d="M186.801,23.578C186.838,24.918 188.318,25.084 189.5,25.084C190.047,25.084 191.594,25.031 191.748,24.209C191.888,23.491 190.052,23.355 189.566,23.303C186.719,22.888 183.349,22.315 184.07,18.587C184.381,16.997 185.476,15.738 186.951,14.913C188.482,14.065 190.092,13.844 191.652,13.844C194.289,13.844 196.857,14.856 197.277,17.49L192.982,18.286C192.76,17.326 191.744,17.051 190.783,17.051C190.345,17.051 189.004,17.187 188.888,17.79C188.799,18.233 189.226,18.426 189.57,18.506C190.144,18.673 191.224,18.752 191.867,18.837C193.09,18.998 194.478,19.189 195.467,19.876C196.597,20.698 197.045,21.931 196.752,23.44C196,27.305 191.701,28.401 188.552,28.401C185.424,28.401 182.744,27.386 182.334,24.153L186.801,23.578Z"/><path d="M200.094,12.683L200.275,12.683C200.494,12.683 200.603,12.598 200.603,12.43C200.603,12.269 200.5,12.189 200.291,12.189L200.094,12.189L200.094,12.683ZM201.14,13.651L200.756,13.651L200.302,12.961L200.094,12.961L200.094,13.651L199.754,13.651L199.754,11.906L200.302,11.906C200.485,11.906 200.636,11.952 200.754,12.045C200.873,12.137 200.931,12.262 200.931,12.418C200.931,12.636 200.82,12.79 200.597,12.878L201.14,13.651ZM200.318,14.11C200.684,14.11 200.998,13.98 201.258,13.721C201.517,13.461 201.648,13.15 201.648,12.785C201.648,12.421 201.517,12.11 201.258,11.85C200.998,11.591 200.684,11.462 200.318,11.462C199.955,11.462 199.642,11.591 199.385,11.85C199.125,12.11 198.996,12.421 198.996,12.785C198.996,13.152 199.125,13.464 199.383,13.723C199.64,13.981 199.953,14.11 200.318,14.11ZM200.318,11.176C200.763,11.176 201.143,11.334 201.46,11.649C201.775,11.965 201.933,12.343 201.933,12.785C201.933,13.232 201.775,13.614 201.46,13.93C201.143,14.249 200.763,14.407 200.318,14.407C199.873,14.407 199.492,14.249 199.177,13.93C198.861,13.614 198.704,13.232 198.704,12.785C198.704,12.339 198.861,11.959 199.176,11.647C199.49,11.333 199.871,11.176 200.318,11.176Z"/></g><g id="tag" class="tag"><path d="M25.542,13.842C24.14,14.143 22.939,13.62 22.872,12.684C22.812,11.743 23.906,10.741 25.318,10.44C26.726,10.143 27.919,10.659 27.984,11.601C28.048,12.541 26.958,13.545 25.542,13.842ZM18.677,18.668L2.435,11.575L7.211,2.665L24.195,6.41L18.677,18.668ZM29.306,4.532C26.638,4.085 10.147,1.116 9.228,0.942C7.621,0.641 5.502,1.229 4.357,3.319C2.952,5.901 0.508,10.377 0.243,10.938C-0.027,11.5 -0.3,12.356 0.779,12.925C3.744,14.497 15.665,20.665 19.31,22.501C20.573,23.138 23.55,22.92 25.003,20.188C26.243,17.86 30.962,8.479 31.236,7.973C31.857,6.788 31.978,4.979 29.306,4.532Z"/><path d="M39.075,17.952C38.529,15.152 34.531,12.194 30.157,11.34C27.005,10.729 24.519,11.377 23.57,12.825C24.743,12.372 26.296,12.25 28.06,12.551C32.312,13.27 36.193,16.166 36.728,19.018C36.915,20.015 36.667,20.871 36.085,21.538C38.212,21.096 39.433,19.787 39.075,17.952Z"/><path d="M8.635,5.472C9.948,5.436 16.429,6.09 18.583,8.669C16.124,8.105 11.738,6.341 8.635,5.472Z"/><path d="M14.06,10.048C12.272,9.354 9.828,8.516 6.787,7.538C8.806,7.532 17.325,9.412 19.118,11.625C18.07,11.625 15.845,10.746 14.06,10.048Z"/><path d="M8.187,10.551C9.197,10.572 15.216,11.378 17.05,13.361C15.575,13.124 12.328,11.748 8.187,10.551Z"/></g></g><g id="tagline" transform="matrix(0.992087,0,0,0.992087,0,-0.861432)" class="tagline"><path d="M108.89,38.745L108.89,38.719C108.89,36.278 110.73,34.279 113.369,34.279C114.988,34.279 115.957,34.819 116.754,35.604L115.552,36.991C114.89,36.389 114.215,36.021 113.357,36.021C111.908,36.021 110.865,37.223 110.865,38.696L110.865,38.719C110.865,40.192 111.885,41.419 113.357,41.419C114.338,41.419 114.939,41.026 115.613,40.413L116.816,41.627C115.933,42.573 114.951,43.161 113.295,43.161C110.767,43.161 108.89,41.211 108.89,38.745Z"/><path d="M118.129,34.058L119.994,34.058L119.994,37.37C120.422,36.819 120.974,36.315 121.92,36.315C123.33,36.315 124.152,37.248 124.152,38.756L124.152,43.014L122.287,43.014L122.287,39.346C122.287,38.462 121.871,38.008 121.158,38.008C120.447,38.008 119.994,38.462 119.994,39.346L119.994,43.014L118.129,43.014L118.129,34.058Z"/><path d="M130.09,39.211C129.978,38.377 129.488,37.812 128.703,37.812C127.929,37.812 127.427,38.364 127.279,39.211L130.09,39.211ZM125.453,39.762L125.453,39.739C125.453,37.862 126.789,36.315 128.703,36.315C130.897,36.315 131.904,38.02 131.904,39.885C131.904,40.033 131.892,40.204 131.881,40.375L127.304,40.375C127.488,41.223 128.078,41.665 128.912,41.665C129.537,41.665 129.992,41.467 130.506,40.989L131.574,41.934C130.961,42.695 130.078,43.161 128.886,43.161C126.912,43.161 125.453,41.774 125.453,39.762Z"/><path d="M137.181,40.695L137.181,40.364C136.861,40.217 136.445,40.118 135.99,40.118C135.193,40.118 134.703,40.438 134.703,41.026L134.703,41.051C134.703,41.553 135.119,41.848 135.72,41.848C136.592,41.848 137.181,41.37 137.181,40.695ZM132.898,41.124L132.898,41.1C132.898,39.665 133.99,39.002 135.549,39.002C136.211,39.002 136.689,39.112 137.156,39.272L137.156,39.162C137.156,38.389 136.677,37.96 135.746,37.96C135.033,37.96 134.531,38.094 133.929,38.315L133.463,36.892C134.187,36.573 134.898,36.364 136.015,36.364C137.033,36.364 137.769,36.634 138.236,37.1C138.726,37.591 138.947,38.315 138.947,39.198L138.947,43.014L137.144,43.014L137.144,42.302C136.689,42.805 136.064,43.136 135.156,43.136C133.918,43.136 132.898,42.424 132.898,41.124Z"/><path d="M145.595,39.739L145.595,39.713C145.595,38.622 144.859,37.898 143.988,37.898C143.117,37.898 142.394,38.622 142.394,39.713L142.394,39.739C142.394,40.831 143.117,41.553 143.988,41.553C144.859,41.553 145.595,40.842 145.595,39.739ZM140.552,36.438L142.418,36.438L142.418,37.383C142.873,36.769 143.498,36.315 144.467,36.315C146,36.315 147.461,37.518 147.461,39.713L147.461,39.739C147.461,41.934 146.025,43.136 144.467,43.136C143.472,43.136 142.859,42.682 142.418,42.155L142.418,44.977L140.552,44.977L140.552,36.438Z"/><path d="M152.599,36.438L154.465,36.438L154.465,43.014L152.599,43.014L152.599,36.438ZM152.551,34.058L154.513,34.058L154.513,35.714L152.551,35.714L152.551,34.058Z"/><path d="M155.705,42.143L156.502,40.916C157.213,41.431 157.961,41.702 158.574,41.702C159.115,41.702 159.359,41.504 159.359,41.211L159.359,41.186C159.359,40.781 158.722,40.646 157.998,40.425C157.078,40.155 156.035,39.725 156.035,38.45L156.035,38.425C156.035,37.088 157.115,36.34 158.439,36.34C159.273,36.34 160.181,36.622 160.894,37.1L160.181,38.389C159.531,38.008 158.881,37.776 158.402,37.776C157.949,37.776 157.717,37.971 157.717,38.229L157.717,38.254C157.717,38.622 158.342,38.794 159.052,39.04C159.972,39.346 161.041,39.788 161.041,40.989L161.041,41.014C161.041,42.473 159.949,43.136 158.525,43.136C157.605,43.136 156.576,42.83 155.705,42.143Z"/><path d="M170.83,39.407L170.83,39.382C170.83,38.487 170.131,37.862 169.222,37.862C168.316,37.862 167.629,38.487 167.629,39.382L167.629,39.407C167.629,40.315 168.316,40.928 169.222,40.928C170.131,40.928 170.83,40.302 170.83,39.407ZM166.095,44.314L166.732,42.916C167.408,43.295 168.082,43.516 168.953,43.516C170.228,43.516 170.83,42.903 170.83,41.725L170.83,41.407C170.279,42.069 169.677,42.473 168.683,42.473C167.15,42.473 165.763,41.358 165.763,39.407L165.763,39.382C165.763,37.419 167.174,36.315 168.683,36.315C169.701,36.315 170.302,36.745 170.806,37.297L170.806,36.438L172.67,36.438L172.67,41.53C172.67,42.708 172.388,43.566 171.836,44.118C171.222,44.731 170.279,45 169.002,45C167.935,45 166.929,44.756 166.095,44.314Z"/><path d="M179.295,39.762L179.295,39.739C179.295,38.769 178.595,37.922 177.564,37.922C176.498,37.922 175.859,38.745 175.859,39.713L175.859,39.739C175.859,40.708 176.558,41.553 177.59,41.553C178.656,41.553 179.295,40.732 179.295,39.762ZM174.019,39.762L174.019,39.739C174.019,37.848 175.541,36.315 177.59,36.315C179.627,36.315 181.135,37.825 181.135,39.713L181.135,39.739C181.135,41.627 179.613,43.161 177.564,43.161C175.529,43.161 174.019,41.652 174.019,39.762Z"/><path d="M187.439,39.762L187.439,39.739C187.439,38.769 186.74,37.922 185.711,37.922C184.642,37.922 184.006,38.745 184.006,39.713L184.006,39.739C184.006,40.708 184.705,41.553 185.734,41.553C186.802,41.553 187.439,40.732 187.439,39.762ZM182.166,39.762L182.166,39.739C182.166,37.848 183.685,36.315 185.734,36.315C187.771,36.315 189.281,37.825 189.281,39.713L189.281,39.739C189.281,41.627 187.76,43.161 185.711,43.161C183.674,43.161 182.166,41.652 182.166,39.762Z"/><path d="M195.402,39.739L195.402,39.713C195.402,38.622 194.679,37.898 193.808,37.898C192.937,37.898 192.201,38.61 192.201,39.713L192.201,39.739C192.201,40.831 192.937,41.553 193.808,41.553C194.679,41.553 195.402,40.831 195.402,39.739ZM190.336,39.739L190.336,39.713C190.336,37.518 191.771,36.315 193.33,36.315C194.324,36.315 194.937,36.769 195.379,37.297L195.379,34.058L197.242,34.058L197.242,43.014L195.379,43.014L195.379,42.069C194.924,42.682 194.299,43.136 193.33,43.136C191.797,43.136 190.336,41.934 190.336,39.739Z"/><rect x="198.838" y="41.051" width="1.986" height="1.963"/><path d="m 200.04149,33.735679 0.096,0 c 0.11614,0 0.17395,-0.04508 0.17395,-0.134179 0,-0.08539 -0.0546,-0.127814 -0.16547,-0.127814 l -0.10448,0 0,0.261993 z m 0.55474,0.513377 -0.20365,0 -0.24078,-0.365941 -0.11031,0 0,0.365941 -0.18032,0 0,-0.925458 0.29063,0 c 0.097,0 0.17714,0.0244 0.23972,0.07372 0.0631,0.04879 0.0939,0.115086 0.0939,0.19782 0,0.115616 -0.0589,0.19729 -0.17713,0.243961 l 0.28797,0.409959 z m -0.43594,0.24343 c 0.19411,0 0.36064,-0.06895 0.49853,-0.206306 0.13736,-0.137891 0.20683,-0.302829 0.20683,-0.496406 0,-0.193047 -0.0695,-0.357985 -0.20683,-0.495876 -0.13789,-0.13736 -0.30442,-0.205775 -0.49853,-0.205775 -0.19252,0 -0.35851,0.06842 -0.49482,0.205775 -0.13789,0.137891 -0.2063,0.302829 -0.2063,0.495876 0,0.194638 0.0684,0.360107 0.20524,0.497467 0.1363,0.13683 0.3023,0.205245 0.49588,0.205245 z m 0,-1.556043 c 0.23601,0 0.43754,0.0838 0.60566,0.250855 0.16706,0.16759 0.25085,0.368062 0.25085,0.602476 0,0.237066 -0.0838,0.439659 -0.25085,0.607249 -0.16812,0.169181 -0.36965,0.252977 -0.60566,0.252977 -0.23601,0 -0.43807,-0.0838 -0.60513,-0.252977 -0.16759,-0.16759 -0.25085,-0.370183 -0.25085,-0.607249 0,-0.236535 0.0833,-0.438068 0.25032,-0.603536 0.16653,-0.16653 0.36859,-0.249795 0.60566,-0.249795 z"/></g></svg>