<svg xmlns="http://www.w3.org/2000/svg" version="1.1" id="svg7669" width="100px" height="36px" viewBox="0 0 94 34" enable-background="new 0 0 94 34" class="header" preserveAspectRatio="xMidYMid meet"><style type="text/css">.logo { fill:#7ac231; } .invert .logo { fill:#FFF; }</style><metadata id="metadata7688"/><title id="title7671"/><desc id="desc7673"/><defs id="defs7675"/><g id="Page-1" transform="translate(-7.892461e-5,-1.8083975)"><g id="wotif-logo" class="logo"><g id="g7679" transform="translate(0,1.8)"><path id="Fill-1" d="m 93.999921,31.163179 c 0,1.704865 -1.223068,2.845192 -3.003081,2.845192 -1.76949,0 -3.003345,-1.140327 -3.003345,-2.845192 0,-1.694141 1.233855,-2.812754 3.003345,-2.812754 1.780013,0 3.003081,1.118613 3.003081,2.812754"/><path id="Fill-3" d="m 80.285113,8.6214099 c -0.488281,-0.074818 -0.906318,-0.1017635 -1.398281,-0.1017635 -1.247272,0 -1.937073,0.7387664 -1.937073,2.2686196 l 0,1.42469 3.335354,0 0,3.824895 -3.335354,0 0,8.968792 -4.297182,0 0,-8.968792 -2.474287,0 0,-3.824895 2.474287,0 0,-1.661963 c 0,-3.693048 2.228304,-5.6982339 5.437905,-5.6982339 0.850545,0 1.514564,0.086329 2.194631,0.2011726 l 0,3.5674782 z M 66.648255,9.9702342 c -1.459053,0 -2.626611,-1.0814662 -2.626611,-2.5323156 0,-1.5036933 1.167558,-2.5851595 2.626611,-2.5851595 1.406174,0 2.60004,1.0814662 2.60004,2.5851595 0,1.4508494 -1.193866,2.5323156 -2.60004,2.5323156 l 0,0 z m 1.919973,15.0364088 -4.297708,0 0,-12.793687 4.297708,0 0,12.793687 z m 17.719364,-2.849378 c 1.102051,-2.103549 1.706087,-4.568632 1.706087,-7.31337 0,-8.9358299 -6.45156,-14.83549755 -15.840169,-14.83549755 -9.332309,0 -15.840169,5.89966765 -15.840169,14.83549755 0,8.992599 6.50786,15.00711 15.840169,15.00711 l 11.330943,0 c 2.672651,0 4.509226,-1.712191 4.509226,-4.271975 0,-1.496107 -0.639026,-2.689539 -1.706087,-3.421765 l 0,0 z"/><path id="Fill-5" d="m 15.036533,25.010541 -2.764729,-8.031992 -2.7344752,8.031992 -4.8154535,0 -4.72179637539,-14.983042 5.09484667539,0 2.3614243,8.464684 2.9512541,-8.464684 3.758916,0 2.920737,8.495553 2.391679,-8.495553 5.064592,0 -4.691542,14.983042 -4.815453,0 z"/><path id="Fill-7" d="m 36.514181,17.441821 c 0,-2.224409 -1.553762,-3.707174 -3.728398,-3.707174 -2.174899,0 -3.727873,1.482765 -3.727873,3.707174 0,2.285886 1.552974,3.799781 3.727873,3.799781 2.174636,0 3.728398,-1.513895 3.728398,-3.799781 m 4.814665,0 c 0,4.850117 -3.479523,8.093992 -8.543063,8.093992 -5.033286,0 -8.543326,-3.243875 -8.543326,-8.093992 0,-4.819509 3.51004,-8.0013849 8.543326,-8.0013849 5.06354,0 8.543063,3.1818759 8.543063,8.0013849"/><path id="Fill-9" d="m 53.972937,20.884802 c -0.736893,0.07927 -1.285682,0.109612 -1.800008,0.109612 -1.553762,0 -2.143592,-0.895728 -2.143592,-2.378493 l 0,-4.108735 3.9436,0 0,-4.479687 -3.9436,0 0,-5.0973316 -5.033286,0 0,5.0973316 -2.889693,0 0,4.479687 2.889693,0 0,4.602903 c 0,4.108734 2.081243,6.363751 5.840948,6.363751 1.258058,0 2.162271,-0.0709 3.135938,-0.252185 l 0,-4.336853 z"/></g></g></g></svg>