<svg xmlns="http://www.w3.org/2000/svg" width="138px" height="35px" viewBox="0 0 360 89" enable-background="new 0 0 360 89" class="header" clip-rule="evenodd" fill-rule="nonzero" preserveAspectRatio="xMidYMid meet" stroke-linejoin="round" stroke-miterlimit="1.414"><style>
    .header .logomark,.header .mr {fill: #FFFFFF;}
    .header .jet {fill: #f16925;}
    .mr,.jet, .logomark {fill: #25344f;}
    .invert .mr, .invert .jet, .invert .logomark { fill:#FFF; }
    .toplevel{fill: #f16925;}
  </style><g class="logomark"><path d="M52.87 16.755L20.42 27.37l-1.55-.53-1.253 1.467s-16.215 5.3-16.443 5.562l-.338.386.402 1.202c.47 1.406.76 1.575 1.964 1.143.477-.17.877-.284.905-.256.027.03-.043.5-.16 1.07-.115.563-.208 2.567-.208 4.482v3.464l.43 2.078c1.34 6.438 4.203 11.666 8.735 15.956 5.005 4.738 11.254 7.366 18.232 7.667 14.257.617 26.663-9.652 29.255-24.213.457-2.567.46-7.376.01-9.902-.985-5.5-3.512-10.753-7.108-14.77-.674-.754-1.203-1.414-1.16-1.447.043-.033.477-.195.954-.355 1.233-.413 1.364-.704.946-2.09-.276-.917-.83-1.645-1.164-1.528zm-1.014 5.94c.778.814 1.83 2.07 2.346 2.8l.934 1.325h-9.623s-1.288-3.49-1.258-3.525c.053-.06 5.81-2.007 6.09-2.06.054-.01.732.644 1.51 1.46zm-8.41 2.29c.285.735.516 1.937.516 1.937s-10.503-.1-10.34-.172c.32-.14 8.974-3.03 9.187-3.067.065-.012.35.57.635 1.303zm13.487 5.36c1.285 2.817 1.974 5.378 2.337 8.7.112 1.018.2 1.9.2 1.985 0 .084-11.69.153-11.69.153l-.13-1.976c-.2-3.036-.67-6.455-1.21-8.78-.268-1.162-.49-2.134-.49-2.15 0-.017 10.08.09 10.08.09l.903 1.977zm-25.497 4.42v6.418H18.114v-.856c0-2.057.79-8.57 1.074-8.862.054-.056 9.166-3.076 9.166-3.076l3.082-.042v6.417zm13.393-5.358c.666 2.43 1.202 6.03 1.44 9.678l.138 2.098h-13.58V28.348h11.71l.29 1.06zm-27.442 4.085c-.136.814-.36 2.873-.497 4.584l-.247 3.107H4.97l.14-1.57c.077-.854.24-2.08.36-2.698l.217-1.13 11.95-3.77-.25 1.477zm-.586 11.318c.224 3.524 1.05 8.77 1.62 10.288l.13.347H8.432l-.912-1.997c-1.386-3.037-2.094-5.786-2.44-9.474l-.128-1.365h11.71l.14 2.2zm14.634-2.2v12.835H19.943l-.21-.673c-.673-2.148-1.337-6.397-1.543-9.88l-.136-2.283h13.382zm14.818 2.2c-.21 3.443-.747 6.95-1.517 9.88l-.198.755H32.827V42.61h13.56l-.134 2.2zm13.087-.836c-.265 3.3-1.13 6.657-2.498 9.678l-.81 1.793H45.93l.11-.367c.67-2.223 1.37-6.785 1.61-10.492l.13-1.977h11.67l-.11 1.364zM19.494 58.5c1.314 3.688 3.337 7.047 5.58 9.26l1.392 1.376-.636-.146c-1.255-.286-3.66-1.182-5.27-1.963-4.116-1.995-8.604-5.944-10.895-9.586l-.36-.57 9.644.103.543 1.528zm11.943-1.63v12.877l-.637-.136c-1.313-.278-3.448-1.48-4.653-2.615-1.97-1.858-4.098-5.357-5.375-8.84l-.47-1.284h11.134zm12.4.877c-.677 1.833-2.243 5.05-3.065 6.295-1.867 2.832-4.874 5.163-7.187 5.57l-.755.135V56.87H44.16l-.323.877zm11.14-.632c-.657 1.145-2.564 3.456-4.015 4.867-2.125 2.066-4.155 3.526-6.74 4.847-1.67.852-5.425 2.265-6.024 2.265-.1 0 .318-.476.934-1.067 2.543-2.437 4.617-6.003 6.276-10.79l.127-.367s9.554.053 9.443.245zM30.54.843c-1.615.317-5.86 2.048-7.077 2.95-1.89 1.397-2.466 1.595-5.15 1.766-2.724.173-2.8.056-5.445.92-2.525.827-3.088 1.297-4.252 2.513-1.79 1.87-2.97 4.93-3.07 7.966-.043 1.282.244 12.002.32 12 .01 0 11.155-3.607 11.155-3.607l1.472.53 1.113-1.386s26.697-8.69 26.763-8.753c.218-.208-5.716-9.38-6.988-10.867C35.4.224 33.25.312 30.54.843z"/></g><g class="mr"><path d="M58.62 70.097l1.95-8.425h5.644l9.097-39.328h-5.655l2.065-8.875h25.078l4.832 34.012 20.846-34.013h26.057l-2.047 8.874h-4.43l-9.042 39.328h5.906l-1.953 8.425h-24.722l1.828-8.425h5.363l9.21-39.328h-1.116L98.355 70.097H92.25l-6.49-47.753h-1.474L75.19 61.672h5.383l-1.9 8.425H58.62zM139.592 70.097l1.888-8.425h4.76l5.268-22.61h-5.347l1.88-8.402h15.986l-2.593 11.434.143.166c4.216-6.144 7.147-9.675 8.754-10.59 1.578-.93 3.3-1.4 5.05-1.4 1.075 0 2.246.137 3.56.39l-2.42 10.487c-1.28-.272-2.494-.394-3.628-.394-6.534 0-10.74 4.157-12.616 12.5l-1.887 8.42h6.16l-1.917 8.424h-23.04z"/></g><g class="jet"><path d="M209.386 13.47l-2.035 8.874h-6.308l-9.66 41.813c-1.95 8.768-5.043 14.818-9.293 18.287-4.22 3.463-9.14 5.213-14.954 5.213-2.91 0-5.84-.494-8.853-1.404l2.7-9.437c1.403.297 2.772.42 3.925.42 3.365 0 6.062-1.26 8.01-3.686 1.893-2.456 3.64-7.118 5.25-13.993l8.568-37.213h-7.43l2.058-8.875h28.022zM211.95 46.34h15.598c.103-.596.147-1.187.147-1.796 0-2.112-.615-3.787-1.9-5.1-1.25-1.272-2.812-1.903-4.662-1.903-4.182 0-7.216 2.942-9.182 8.8zm13.714 11.97l8.912 4.043c-3.975 5.938-9.918 8.913-17.79 8.913-5.453 0-9.85-1.594-13.1-4.672-3.288-3.11-4.897-7.26-4.897-12.447 0-6.665 2.165-12.394 6.6-17.24 4.352-4.88 9.733-7.297 16.19-7.297 4.937 0 9.103 1.578 12.503 4.756 3.287 3.178 4.94 7.422 4.94 12.844 0 1.775-.13 3.665-.565 5.587H210.48c-.15.953-.225 1.75-.225 2.544 0 2.582.662 4.532 1.978 5.93 1.318 1.477 3.112 2.177 5.31 2.177 3.405 0 6.09-1.72 8.12-5.137zM262.983 59.79l-2.11 9.06c-3.48 1.622-6.89 2.416-10.143 2.416-2.63 0-4.638-.722-6.235-2.253-1.48-1.397-2.32-3.35-2.32-5.713 0-1.787.276-3.603.748-5.55l4.29-18.687h-4.668l1.935-8.403h4.662l1.872-8.316h12.19l-2.04 8.316h5.325l-1.857 8.403h-5.313l-4.262 18.315c-.163.882-.266 1.694-.266 2.175 0 1.444.806 2.12 2.444 2.12 1.53 0 3.51-.63 5.747-1.882z"/></g><g class="toplevel"><path d="M332.02 46.335h15.588c.103-.594.23-1.188.23-1.797 0-2.106-.727-3.785-1.974-5.097-1.253-1.268-2.766-1.902-4.588-1.902-4.262 0-7.334 2.94-9.256 8.797zm13.716 11.962l8.897 4.05c-4.025 5.944-9.92 8.903-17.778 8.903-5.47 0-9.81-1.59-13.107-4.668-3.2-3.11-4.865-7.26-4.865-12.447 0-6.66 2.215-12.382 6.568-17.228 4.317-4.88 9.742-7.3 16.148-7.3 5.06 0 9.222 1.578 12.503 4.756 3.405 3.178 5.064 7.422 5.064 12.834 0 1.785-.247 3.672-.57 5.597h-28.002c-.197.944-.275 1.74-.275 2.53 0 2.592.66 4.533 2.066 5.933 1.328 1.478 3.068 2.178 5.31 2.178 3.327 0 6.04-1.71 8.043-5.138zM278.714 70.088l3.216-13.606h7.768c.87 4.478 3.95 6.65 9.216 6.65 5.11 0 7.672-1.38 7.672-4.213 0-.95-.403-1.792-1.2-2.495-.747-.68-3.422-1.61-7.913-2.628-4.584-1.04-7.618-2.703-9.268-4.83-1.572-2.195-2.388-4.37-2.388-6.392 0-3.56 1.516-6.5 4.563-8.834 3.056-2.352 6.937-3.505 11.625-3.505 3.668 0 6.747.818 9.178 2.506l.497-2.08h8.487l-2.606 11.48h-8.115c-.915-3.05-3.37-4.565-7.247-4.565-1.818 0-3.343.347-4.49 1.035-1.078.718-1.61 1.637-1.61 2.784 0 .722.31 1.378 1.003 1.94.726.55 3.317 1.316 7.614 2.35 4.344 1.04 7.428 2.52 9.087 4.616 1.75 2.028 2.636 4.413 2.636 7.138 0 3.756-1.635 6.844-4.92 9.406-3.274 2.43-7.468 3.656-12.602 3.656-4.547 0-8.22-.9-11.02-2.684l-.574 2.272h-8.606zM265.597 65.48c-.512 2.26-.934 4.193-.934 4.277 0 .084 2.058.153 4.563.153h4.563l.1-.357c.053-.195.462-1.966.903-3.922.442-1.954.855-3.725.915-3.92l.11-.357h-9.286l-.935 4.126z"/></g></svg>