<?xml version="1.0" encoding="utf-8"?>
<!-- Generator: Adobe Illustrator 16.0.4, SVG Export Plug-In . SVG Version: 6.00 Build 0)  -->
<!DOCTYPE svg PUBLIC "-//W3C//DTD SVG 1.1//EN" "http://www.w3.org/Graphics/SVG/1.1/DTD/svg11.dtd">
<svg version="1.1" id="Layer_1" xmlns="http://www.w3.org/2000/svg" xmlns:xlink="http://www.w3.org/1999/xlink" x="0px" y="0px"
	 width="288px" height="288px" viewBox="0 0 288 288" enable-background="new 0 0 288 288" xml:space="preserve">
<path fill="#0065B8" d="M239.852,0.178H80.099c-13.238,0-23.971,10.732-23.971,23.97H28.163c-6.617,0-11.985,5.368-11.985,11.985
	c0,6.617,5.368,11.985,11.985,11.985h27.965V96.06H28.163c-6.617,0-11.985,5.368-11.985,11.985s5.368,11.985,11.985,11.985h27.965
	v47.941H28.163c-6.617,0-11.985,5.368-11.985,11.984c0,6.617,5.368,11.984,11.985,11.984h27.965v47.94H28.163
	c-6.617,0-11.985,5.369-11.985,11.985c0,6.617,5.368,11.984,11.985,11.984h27.965c0,13.237,10.733,23.971,23.971,23.971h159.752
	c13.236,0,23.971-10.732,23.971-23.971V24.148C263.822,10.911,253.089,0.178,239.852,0.178z M96.079,231.893
	c-8.825,0-15.98-7.156-15.98-15.98c0-8.825,7.155-15.98,15.98-15.98c8.825,0,15.98,7.155,15.98,15.98
	C112.059,224.736,104.904,231.893,96.079,231.893z M96.079,155.984c-8.825,0-15.98-7.154-15.98-15.979
	c0-8.825,7.155-15.98,15.98-15.98c8.825,0,15.98,7.155,15.98,15.98C112.059,148.83,104.904,155.984,96.079,155.984z M96.079,84.074
	c-8.825,0-15.98-7.155-15.98-15.98c0-8.825,7.155-15.98,15.98-15.98c8.825,0,15.98,7.155,15.98,15.98
	C112.06,76.919,104.904,84.074,96.079,84.074z"/>
</svg>
